# xmcd CD database file
#
# Track frame offsets:
#	150
#	24138
#	45395
#	69801
#	91602
#	124911
#	148154
#	164702
#	185326
#	197546
#	218170
#
# Disc length: 3083 seconds
#
# Revision: 0
# Processed by: cddbd v1.5.2PL0 Copyright (c) Steve Scherf et al.
# Submitted via: CDex 1.70beta2
#
DISCID=8e0c090b
DTITLE=Gil Cadilli Trio - As Time Goes By
DYEAR=2008
DGENRE=Jazz
TTITLE0=Autumn Leaves
TTITLE1=Polkadots and Moonbeams
TTITLE2=Nature Boy
TTITLE3=This Masquerade
TTITLE4=In A Sentimental Mood
TTITLE5='Round Midnight
TTITLE6=Sugar
TTITLE7=Sophisticated Lady
TTITLE8=GC's Blues
TTITLE9=Idle Moments
TTITLE10=As Time Goes By
EXTD=YEAR: 2008
EXTT0=
EXTT1=
EXTT2=
EXTT3=
EXTT4=
EXTT5=
EXTT6=
EXTT7=
EXTT8=
EXTT9=
EXTT10=
PLAYORDER=
